<!DOCTYPE svg PUBLIC "-//W3C//DTD SVG 20010904//EN" "http://www.w3.org/TR/2001/REC-SVG-20010904/DTD/svg10.dtd">
<svg version="1.0" xmlns="http://www.w3.org/2000/svg" width="22px" height="38px" viewBox="0 0 220 380" preserveAspectRatio="xMidYMid meet">
<g id="layer101" fill="#ffffff" stroke="none">
 <path d="M90 285 c-51 -51 -91 -97 -89 -103 6 -15 109 -122 118 -122 4 0 14 -11 21 -24 17 -33 39 -40 61 -20 27 24 23 44 -16 84 -19 19 -35 38 -35 42 0 4 -6 8 -13 8 -7 0 -18 10 -26 21 -12 20 -8 26 48 83 63 64 74 93 42 113 -16 10 -30 0 -111 -82z"/>
 </g>

</svg>