<!DOCTYPE svg PUBLIC "-//W3C//DTD SVG 20010904//EN" "http://www.w3.org/TR/2001/REC-SVG-20010904/DTD/svg10.dtd">
<svg version="1.0" xmlns="http://www.w3.org/2000/svg" width="1280px" height="1024px" viewBox="0 0 12800 10240" preserveAspectRatio="xMidYMid meet">
<g id="layer101" fill="#7b0206" stroke="none">
 <path d="M4685 9594 c-353 -5 -1019 -24 -1200 -34 -99 -6 -398 -19 -665 -30 -267 -11 -537 -25 -600 -30 -63 -5 -164 -12 -225 -15 -419 -23 -718 -79 -792 -148 -32 -29 -30 -72 4 -94 16 -10 34 -23 41 -30 7 -7 21 -13 30 -13 8 0 41 -9 71 -20 134 -47 577 -87 1361 -125 454 -22 463 -23 453 -43 -4 -10 -9 -994 -11 -2188 l-2 -2171 -50 -5 c-60 -6 -108 -37 -144 -92 -25 -39 -26 -45 -26 -196 l0 -157 -107 -90 c-178 -150 -213 -187 -213 -225 0 -82 67 -371 126 -539 39 -114 117 -284 164 -360 29 -47 30 -54 30 -162 0 -107 1 -115 29 -159 43 -68 92 -88 216 -88 87 0 103 -3 141 -25 107 -63 350 -124 674 -170 102 -14 200 -28 219 -31 31 -5 17 -11 -112 -55 -176 -59 -253 -92 -345 -152 -157 -101 -242 -226 -250 -365 -4 -85 7 -132 52 -203 15 -24 127 -212 247 -418 121 -206 224 -380 230 -387 24 -29 126 -88 193 -113 65 -23 85 -25 226 -25 134 0 169 4 260 26 244 61 441 177 634 375 102 103 204 235 366 473 224 329 286 399 404 460 l48 25 16 -25 c58 -86 104 -114 214 -131 148 -23 312 5 364 62 17 18 18 18 63 -18 139 -110 227 -213 411 -483 274 -402 448 -606 580 -684 96 -56 228 -98 331 -104 71 -4 100 -1 160 17 72 22 77 26 182 134 114 118 218 245 443 542 165 217 178 241 170 298 -15 99 -77 192 -249 373 l-105 110 136 68 c224 112 416 230 590 363 l82 63 192 0 c226 0 259 9 309 88 l29 46 0 218 0 218 34 52 c45 71 127 237 159 323 68 182 95 340 83 478 l-8 75 -28 -9 c-32 -12 -51 -46 -106 -189 -20 -52 -57 -135 -83 -185 l-46 -90 -5 460 c-5 442 -6 462 -25 493 -28 44 -82 81 -127 89 l-38 6 0 2152 c0 1888 -2 2158 -15 2195 -8 23 -15 44 -15 45 0 1 60 5 133 9 72 4 195 11 272 16 77 5 255 16 395 25 140 9 280 20 311 25 30 6 73 10 95 10 57 0 250 35 329 59 75 24 145 73 145 102 0 20 -56 79 -75 79 -5 0 -23 7 -40 16 -68 36 -263 65 -555 85 -85 5 -182 14 -215 19 -33 6 -100 10 -150 10 -49 0 -189 7 -309 15 -279 18 -1073 52 -1591 66 -352 10 -3398 20 -3920 13z"/>
 </g>
<g id="layer102" fill="#393939" stroke="none">
 <path d="M4685 9594 c-353 -5 -1019 -24 -1200 -34 -99 -6 -398 -19 -665 -30 -267 -11 -537 -25 -600 -30 -63 -5 -164 -12 -225 -15 -419 -23 -718 -79 -792 -148 -32 -29 -30 -72 4 -94 16 -10 34 -23 41 -30 7 -7 21 -13 30 -13 8 0 41 -9 71 -20 134 -47 577 -87 1361 -125 454 -22 463 -23 453 -43 -4 -10 -9 -994 -11 -2188 l-2 -2171 -50 -5 c-60 -6 -108 -37 -144 -92 -25 -39 -26 -45 -27 -201 l0 -160 -137 -114 c-75 -63 -148 -128 -161 -144 -23 -28 -24 -29 -11 -120 36 -267 160 -634 280 -828 29 -47 30 -54 30 -162 0 -107 1 -115 29 -159 43 -68 92 -88 216 -88 85 0 104 -3 139 -24 56 -32 171 -73 291 -102 97 -23 156 -31 105 -13 -15 5 44 6 145 3 93 -3 174 -9 180 -13 8 -7 112 -16 298 -26 55 -2 68 -21 21 -30 -61 -11 -284 -82 -396 -125 -202 -78 -356 -198 -419 -326 -26 -52 -33 -81 -37 -142 -4 -86 7 -132 52 -203 16 -24 100 -168 188 -319 88 -151 165 -279 170 -285 16 -16 -13 36 -165 295 -80 135 -143 247 -140 250 3 3 11 -3 18 -13 7 -10 17 -19 22 -20 4 -1 7 -5 6 -8 -1 -3 27 -43 63 -87 65 -83 78 -105 47 -81 -17 13 -17 13 -3 -6 8 -11 22 -28 32 -38 10 -10 18 -27 18 -38 0 -11 4 -18 9 -15 5 3 17 -6 26 -20 11 -18 12 -24 4 -18 -8 4 -2 -7 14 -25 15 -18 27 -39 27 -47 0 -8 5 -14 11 -14 6 0 9 -7 5 -15 -3 -9 0 -15 9 -15 8 0 15 -7 15 -16 0 -8 4 -13 9 -10 5 3 11 -1 14 -9 4 -8 1 -13 -6 -11 -7 1 -9 1 -4 -1 4 -3 7 -11 7 -19 0 -8 5 -14 11 -14 5 0 7 6 3 12 -4 7 2 5 14 -6 12 -10 19 -23 16 -28 -4 -6 -10 -5 -16 3 -8 11 -9 11 -5 -1 2 -8 10 -15 18 -15 14 0 54 -55 90 -126 11 -20 27 -40 34 -43 8 -3 12 -12 9 -21 -3 -8 -1 -15 5 -15 5 0 15 -9 21 -21 11 -20 11 -20 -22 -3 -18 9 -51 31 -73 48 -22 17 -34 23 -27 14 25 -32 125 -91 196 -117 65 -23 85 -25 226 -25 134 0 169 4 260 26 244 61 441 177 634 375 102 103 204 235 366 473 218 320 275 386 390 453 45 26 92 33 84 12 -5 -13 50 -81 78 -96 15 -8 19 -8 14 0 -4 6 -2 11 3 11 6 0 11 -6 11 -14 0 -8 7 -17 16 -20 21 -8 24 -8 24 5 0 5 -4 8 -9 4 -5 -3 -13 0 -17 6 -5 9 0 10 17 6 13 -4 27 -7 31 -7 4 0 5 -7 2 -15 -8 -20 29 -20 46 -1 6 8 18 12 26 9 10 -4 12 -9 4 -18 -8 -9 10 -12 79 -11 67 1 88 4 87 15 -2 21 41 33 48 14 5 -12 1 -14 -14 -10 -11 3 -18 1 -14 -4 7 -12 23 -11 59 6 l30 14 -29 -4 c-16 -2 -26 -1 -22 2 4 4 14 8 24 9 9 2 18 8 20 13 2 6 13 11 23 11 13 0 18 -5 14 -13 -4 -6 3 -1 14 11 l21 24 62 -50 c134 -108 213 -201 398 -472 274 -401 448 -606 580 -684 159 -93 354 -128 489 -87 63 19 80 30 140 89 l68 67 -63 -58 c-53 -48 -115 -87 -139 -87 -4 0 11 21 33 47 22 27 51 68 66 93 15 25 43 65 61 90 19 25 46 62 60 82 14 21 29 38 34 38 5 0 12 11 15 25 4 14 17 32 31 41 14 9 25 21 25 28 0 6 14 25 30 43 17 18 30 36 30 41 0 5 17 31 38 58 21 27 53 74 71 104 84 139 82 137 136 144 80 9 146 37 157 66 21 56 -18 168 -95 268 -25 31 -92 107 -150 168 l-105 110 136 68 c240 119 524 300 620 394 l33 32 201 0 c186 0 205 2 246 21 29 15 54 37 73 67 l29 46 0 225 0 225 -43 -62 c-97 -136 -310 -367 -436 -470 -59 -48 -56 -39 10 29 32 33 59 66 59 72 0 7 9 18 20 25 11 7 20 19 20 27 0 8 4 15 9 15 5 0 15 16 21 35 6 19 16 33 21 29 5 -3 12 3 16 13 7 19 40 69 61 91 6 7 12 19 12 26 0 7 9 24 19 38 11 14 34 51 52 84 17 32 39 65 47 71 9 7 13 13 9 13 -11 0 52 118 66 123 8 4 8 6 1 6 -15 1 -1 66 19 89 8 9 18 28 22 42 4 14 -28 -20 -73 -75 -122 -154 -234 -252 -387 -343 -104 -62 -193 -96 -211 -81 -12 9 -13 9 -9 -3 4 -10 -1 -17 -13 -20 -25 -7 -19 23 11 49 14 13 18 14 13 3 -7 -13 -6 -13 6 0 7 8 27 21 43 29 30 13 36 17 110 56 43 24 131 81 155 101 72 61 239 240 289 310 l61 87 0 471 c0 470 0 471 -23 508 -29 48 -82 87 -129 95 l-38 6 0 2152 c0 1888 -2 2158 -15 2195 -8 23 -15 44 -15 45 0 1 60 5 133 9 72 4 195 11 272 16 77 5 255 16 395 25 140 9 280 20 311 25 30 6 73 10 95 10 57 0 250 35 329 59 75 24 145 73 145 102 0 20 -56 79 -75 79 -5 0 -23 7 -40 16 -68 36 -263 65 -555 85 -85 5 -182 14 -215 19 -33 6 -100 10 -150 10 -49 0 -189 7 -309 15 -279 18 -1073 52 -1591 66 -352 10 -3398 20 -3920 13z m1088 -324 c-4 -15 -9 -17 -24 -10 -31 17 -32 30 -1 30 25 0 29 -3 25 -20z m1545 -125 c3 -167 0 -188 -31 -183 -20 3 -22 10 -27 88 l-5 85 -165 11 c-174 11 -342 29 -425 44 -27 5 -80 14 -117 20 -147 22 -207 32 -303 52 -55 11 -102 22 -104 24 -3 2 261 3 585 2 l589 -3 3 -140z m-1546 -4367 l3 -23 343 -3 c222 -1 341 -6 337 -12 -3 -6 -22 -10 -41 -10 -19 0 -55 -9 -80 -20 -24 -11 -58 -23 -75 -27 l-31 -6 28 -12 c27 -11 22 -13 -56 -18 -47 -4 -152 -9 -235 -12 -167 -7 -195 -11 -195 -31 0 -9 -11 -14 -30 -14 l-30 0 0 105 0 105 29 0 c23 0 30 -5 33 -22z m-1 -1680 c1 -84 3 -145 6 -135 4 15 12 17 49 13 62 -8 94 -17 94 -27 0 -5 24 -9 54 -9 30 0 56 -4 58 -9 2 -6 14 -12 28 -14 14 -3 39 -12 55 -21 17 -9 36 -16 43 -16 7 0 20 -4 30 -9 55 -29 201 -84 265 -99 76 -18 178 -20 317 -7 82 8 80 8 130 1 19 -3 44 -5 55 -6 19 0 18 -2 -4 -19 -23 -18 -37 -51 -22 -51 4 0 38 15 77 34 80 39 173 71 181 62 3 -3 0 -38 -7 -78 -16 -89 -20 -159 -10 -153 4 3 10 -9 14 -26 8 -42 83 -112 187 -174 46 -27 92 -53 102 -58 11 -4 31 -15 46 -25 14 -11 67 -40 116 -66 103 -55 219 -130 253 -163 13 -13 29 -23 37 -23 8 0 15 -4 15 -10 0 -5 7 -10 15 -10 8 0 15 -4 15 -8 0 -4 10 -8 22 -9 11 -1 24 -7 28 -13 4 -6 27 -14 51 -16 24 -3 48 -10 53 -15 6 -5 30 -9 55 -9 52 0 45 -11 -16 -29 l-43 -12 -132 74 c-420 235 -660 330 -965 381 l-137 23 -12 52 c-14 64 -39 100 -84 123 -29 15 -65 17 -286 15 l-252 -2 -28 -25 c-32 -30 -63 -95 -64 -132 0 -30 -4 -31 -63 -21 -27 4 -42 13 -49 28 -9 20 -24 25 -117 39 -236 35 -323 41 -623 41 -264 0 -301 2 -260 12 71 19 184 44 212 47 14 2 72 14 130 26 58 12 123 26 145 31 22 4 55 13 73 18 17 5 32 7 32 4 0 -3 7 0 15 7 8 6 19 9 24 6 5 -4 12 -2 16 4 3 5 17 10 31 10 15 0 24 6 24 16 0 10 6 14 15 10 8 -3 15 -1 15 5 0 5 15 9 33 8 17 -2 55 8 82 20 28 13 55 24 60 25 6 1 18 7 28 12 16 9 13 12 -25 23 -79 21 -182 31 -265 24 -57 -4 -83 -3 -83 5 0 14 41 43 52 36 4 -3 17 -2 28 1 19 6 20 15 20 204 0 109 3 201 7 204 3 4 17 7 30 7 l23 0 1 -152z m14 -688 c61 -6 170 -20 243 -32 115 -18 132 -23 132 -39 0 -16 -8 -19 -48 -19 -81 0 -497 -36 -535 -47 -15 -4 -17 1 -11 34 3 21 5 46 5 55 0 10 5 20 10 23 5 4 7 11 4 16 -12 18 5 27 47 23 24 -2 93 -9 153 -14z m1120 -132 c-4 -18 -9 -42 -10 -53 -2 -11 -4 -22 -5 -25 -1 -3 -2 -8 -1 -12 2 -14 -44 -93 -56 -95 -7 -2 -11 3 -8 10 2 6 13 56 25 110 19 83 25 97 42 97 18 0 20 -4 13 -32z m-730 -138 c6 -56 4 -71 -5 -65 -34 21 -52 127 -28 165 13 20 13 19 19 -4 4 -13 10 -57 14 -96z m2536 -86 c20 -24 -5 -34 -86 -33 l-70 0 55 24 c66 28 84 30 101 9z m-2448 -157 c-3 -5 -16 1 -29 14 -31 29 -21 44 10 16 14 -12 22 -25 19 -30z m-2625 -24 c20 -16 39 -31 42 -34 3 -3 30 -22 60 -41 30 -20 71 -50 90 -67 19 -17 40 -31 45 -31 12 0 164 -125 208 -171 l28 -29 -28 -11 c-46 -18 -177 -23 -244 -10 -175 35 -283 142 -282 281 0 48 26 140 40 140 2 0 21 -12 41 -27z"/>
 <path d="M3765 2420 c17 -4 41 -8 55 -8 22 0 22 1 -5 8 -16 4 -41 8 -55 8 -22 0 -22 -1 5 -8z"/>
 <path d="M3863 2403 c9 -2 25 -2 35 0 9 3 1 5 -18 5 -19 0 -27 -2 -17 -5z"/>
 <path d="M3993 2383 c9 -2 25 -2 35 0 9 3 1 5 -18 5 -19 0 -27 -2 -17 -5z"/>
 <path d="M8991 1405 c-39 -52 -69 -95 -67 -95 4 0 124 152 139 178 5 6 6 12 4 12 -3 0 -37 -43 -76 -95z"/>
 <path d="M3923 953 c30 -55 90 -153 94 -153 5 0 7 -4 -47 88 -23 39 -44 72 -47 72 -2 0 -2 -3 0 -7z"/>
 <path d="M8560 855 c-24 -25 -42 -45 -39 -45 3 0 25 20 49 45 24 25 42 45 39 45 -3 0 -25 -20 -49 -45z"/>
 </g>
<g id="layer103" fill="#ca0b10" stroke="none">
 <path d="M5125 9593 c-310 -3 -1005 -22 -1200 -33 -93 -5 -300 -14 -460 -20 -1144 -42 -1760 -97 -1968 -176 -74 -28 -101 -60 -81 -92 28 -44 213 -104 359 -117 44 -4 96 -11 115 -15 64 -16 669 -60 1083 -79 110 -5 201 -11 202 -13 2 -2 -2 -22 -10 -43 -12 -34 -14 -366 -15 -2196 l0 -2156 -50 -5 c-60 -6 -108 -37 -144 -92 -25 -39 -26 -45 -27 -201 l0 -160 -137 -114 c-75 -63 -148 -128 -161 -144 -23 -28 -24 -29 -11 -120 36 -267 160 -634 280 -828 29 -47 30 -54 30 -162 0 -107 1 -115 29 -159 43 -68 92 -88 216 -88 85 0 104 -3 139 -24 56 -32 171 -73 291 -102 97 -23 156 -31 105 -13 -15 5 44 6 145 3 93 -3 174 -9 180 -13 8 -7 112 -16 298 -26 55 -2 68 -21 21 -30 -61 -11 -284 -82 -396 -125 -202 -78 -356 -198 -419 -326 -26 -52 -33 -81 -37 -142 -4 -86 7 -132 52 -203 16 -24 100 -168 188 -319 88 -151 165 -279 170 -285 16 -16 -13 36 -165 295 -80 135 -143 247 -140 250 3 3 11 -3 18 -13 7 -10 17 -19 22 -20 4 -1 7 -5 6 -8 -1 -3 27 -43 63 -87 65 -83 78 -105 47 -81 -17 13 -17 13 -3 -6 8 -11 22 -28 32 -38 10 -10 18 -27 18 -38 0 -11 4 -18 9 -15 5 3 17 -6 26 -20 11 -18 12 -24 4 -18 -8 4 -2 -7 14 -25 15 -18 27 -39 27 -47 0 -8 5 -14 11 -14 6 0 9 -7 5 -15 -3 -9 0 -15 9 -15 8 0 15 -7 15 -16 0 -8 4 -13 9 -10 5 3 11 -1 14 -9 4 -8 1 -13 -6 -11 -7 1 -9 1 -4 -1 4 -3 7 -11 7 -19 0 -8 5 -14 11 -14 5 0 7 6 3 13 -4 6 2 4 14 -7 12 -10 19 -23 16 -28 -4 -6 -10 -5 -16 3 -8 11 -9 11 -5 -1 2 -8 10 -15 18 -15 14 0 54 -55 90 -126 11 -20 27 -40 34 -43 8 -3 12 -12 9 -21 -3 -8 -1 -15 5 -15 5 0 15 -9 21 -21 11 -20 11 -20 -22 -3 -18 9 -51 31 -73 48 -22 17 -34 23 -27 14 25 -32 125 -91 196 -117 65 -23 85 -25 226 -25 134 0 169 4 260 26 244 61 441 177 634 375 102 103 204 235 366 473 218 320 275 386 391 453 47 28 96 37 83 15 -5 -7 -2 -9 8 -5 12 4 14 1 10 -15 -3 -14 -1 -19 8 -16 17 5 56 -32 52 -50 -2 -8 1 -11 8 -7 6 4 18 -1 26 -11 9 -11 13 -13 9 -6 -4 7 0 12 10 12 9 0 14 -4 11 -9 -4 -5 4 -7 16 -3 13 3 19 1 15 -5 -11 -17 24 -25 42 -10 17 15 45 12 35 -4 -3 -5 0 -9 5 -9 6 0 11 5 11 11 0 6 6 9 13 6 6 -2 11 -8 10 -13 -1 -5 20 -9 47 -9 39 0 46 3 37 13 -8 10 -7 12 4 10 8 -2 17 -7 21 -13 5 -6 8 -5 8 3 0 21 43 32 56 14 9 -12 13 -12 19 -2 6 9 4 11 -5 5 -9 -5 -11 -4 -6 4 6 9 12 9 24 -1 10 -7 14 -9 10 -4 -9 11 16 36 36 36 8 0 17 8 19 18 4 14 5 14 6 -3 1 -16 3 -17 10 -6 16 25 187 -126 298 -264 22 -27 100 -138 173 -245 274 -401 448 -606 580 -684 159 -93 354 -128 489 -87 63 19 80 30 140 89 l68 67 -63 -58 c-53 -48 -115 -87 -139 -87 -4 0 11 21 33 47 22 27 51 68 66 93 15 25 43 65 61 90 19 25 46 62 60 82 14 21 29 38 34 38 5 0 12 11 15 25 4 14 17 32 31 41 14 9 25 21 25 28 0 6 14 25 30 43 17 18 30 36 30 41 0 5 17 31 38 58 21 27 53 74 71 104 84 139 82 137 136 144 80 9 146 37 157 66 21 56 -18 168 -95 268 -25 31 -92 107 -150 168 l-105 110 136 68 c240 119 524 300 620 394 l33 32 201 0 c186 0 205 2 246 21 29 15 54 37 73 67 l29 46 0 225 0 225 -43 -62 c-97 -136 -310 -367 -436 -469 -59 -49 -56 -40 10 28 32 33 59 66 59 72 0 7 9 18 20 25 11 7 20 19 20 27 0 8 4 15 9 15 5 0 15 16 21 35 6 19 16 33 21 29 5 -3 12 3 16 13 7 19 40 69 61 91 6 7 12 19 12 26 0 7 9 24 19 38 11 14 34 51 52 84 17 32 39 65 47 72 9 6 13 12 9 12 -11 0 52 118 66 123 8 4 8 6 1 6 -15 1 -1 66 19 89 8 9 18 28 22 42 4 14 -28 -20 -73 -75 -122 -154 -234 -252 -387 -343 -104 -62 -193 -96 -211 -81 -12 9 -13 9 -9 -3 4 -10 -1 -17 -13 -20 -25 -7 -19 23 11 49 14 13 18 14 13 3 -7 -13 -6 -13 6 0 7 8 27 21 43 29 30 13 36 17 110 56 43 24 131 81 155 101 72 61 239 240 289 310 l61 87 0 471 c0 470 0 471 -23 508 -29 48 -82 87 -129 95 l-38 6 0 2153 c0 2129 0 2154 -20 2206 -11 29 -20 54 -20 54 0 1 55 5 123 8 67 4 178 11 247 17 69 5 193 14 275 20 362 24 636 70 745 122 48 24 78 66 57 79 -7 4 -7 8 -2 8 11 1 -87 43 -153 66 -78 27 -367 67 -617 84 -77 5 -157 12 -178 15 -20 3 -122 10 -225 15 -103 5 -317 16 -477 24 -1223 64 -2734 87 -4520 69z m1423 -20 c-158 -2 -419 -2 -580 0 -161 1 -32 2 287 2 319 0 451 -1 293 -2z m-1323 -10 c-98 -2 -162 -8 -166 -14 -4 -7 -23 -8 -55 -2 l-49 8 55 6 c30 3 127 5 215 5 l160 0 -160 -3z m2461 0 c-29 -3 -36 -7 -25 -14 9 -6 -2 -7 -31 -3 -25 3 -97 9 -160 13 -112 8 -110 8 70 8 102 0 167 -2 146 -4z m-3219 -10 c-20 -2 -52 -2 -70 0 -17 2 0 4 38 4 39 0 53 -2 32 -4z m3741 -3 c-53 -4 -101 -11 -107 -15 -6 -3 -26 -3 -44 2 -29 7 -26 8 33 14 36 3 99 6 140 6 73 0 72 0 -22 -7z m-4025 -7 c-24 -2 -62 -2 -85 0 -24 2 -5 4 42 4 47 0 66 -2 43 -4z m481 -3 c-7 -7 -29 -7 -65 -1 l-54 9 65 1 c43 1 61 -2 54 -9z m3984 3 c-21 -2 -57 -2 -80 0 -24 2 -7 4 37 4 44 0 63 -2 43 -4z m-4710 -20 c16 -15 15 -16 -13 -8 -17 5 -55 12 -85 15 l-55 7 68 2 c52 1 72 -3 85 -16z m377 12 c-25 -9 -107 -12 -94 -4 8 5 34 8 59 8 25 0 41 -2 35 -4z m4157 -7 c-8 -8 -20 -8 -44 -1 l-33 11 45 1 c33 1 41 -2 32 -11z m455 5 c-20 -2 -52 -2 -70 0 -17 2 0 4 38 4 39 0 53 -2 32 -4z m-5359 -10 c-16 -2 -40 -2 -55 0 -16 2 -3 4 27 4 30 0 43 -2 28 -4z m5228 -2 c-5 -8 -56 -3 -56 5 0 2 14 4 31 4 16 0 28 -4 25 -9z m391 2 c-20 -2 -52 -2 -70 0 -17 2 0 4 38 4 39 0 53 -2 32 -4z m-5834 -10 c-18 -2 -48 -2 -65 0 -18 2 -4 4 32 4 36 0 50 -2 33 -4z m347 -3 c10 -6 2 -7 -25 -3 -49 7 -58 13 -19 13 16 0 36 -5 44 -10z m5718 3 c-16 -2 -40 -2 -55 0 -16 2 -3 4 27 4 30 0 43 -2 28 -4z m-6280 -10 c-16 -2 -40 -2 -55 0 -16 2 -3 4 27 4 30 0 43 -2 28 -4z m6127 0 c-11 -3 -25 -9 -32 -15 -7 -5 -13 -5 -17 1 -7 12 11 20 44 19 20 0 21 -1 5 -5z m343 0 c-15 -2 -42 -2 -60 0 -18 2 -6 4 27 4 33 0 48 -2 33 -4z m-6640 -10 c-16 -2 -40 -2 -55 0 -16 2 -3 4 27 4 30 0 43 -2 28 -4z m310 -13 c4 -12 2 -13 -9 -4 -8 7 -23 14 -34 17 -13 4 -9 5 9 4 16 -1 32 -9 34 -17z m6210 13 c-10 -2 -26 -2 -35 0 -10 3 -2 5 17 5 19 0 27 -2 18 -5z m325 0 c-18 -2 -48 -2 -65 0 -18 2 -4 4 32 4 36 0 50 -2 33 -4z m-7020 -10 c-18 -2 -48 -2 -65 0 -18 2 -4 4 32 4 36 0 50 -2 33 -4z m275 0 c-10 -2 -26 -2 -35 0 -10 3 -2 5 17 5 19 0 27 -2 18 -5z m6880 0 c-16 -2 -40 -2 -55 0 -16 2 -3 4 27 4 30 0 43 -2 28 -4z m-7315 -10 c-18 -2 -48 -2 -65 0 -18 2 -4 4 32 4 36 0 50 -2 33 -4z m275 0 c-10 -2 -26 -2 -35 0 -10 3 -2 5 17 5 19 0 27 -2 18 -5z m7190 0 c-16 -2 -40 -2 -55 0 -16 2 -3 4 27 4 30 0 43 -2 28 -4z m-7600 -10 c-16 -2 -40 -2 -55 0 -16 2 -3 4 27 4 30 0 43 -2 28 -4z m7837 -3 l60 -7 -55 -1 c-30 0 -77 3 -105 8 l-50 7 45 1 c25 0 72 -4 105 -8z m-8015 -12 c-437 -46 -641 -99 -628 -164 9 -47 239 -111 483 -134 117 -11 159 -20 98 -20 -47 0 -291 29 -348 41 -123 26 -182 41 -212 55 -17 8 -34 14 -37 14 -14 0 -46 36 -46 51 0 57 179 111 475 143 77 9 154 17 170 19 17 2 53 4 80 4 33 0 22 -3 -35 -9z m7898 -5 c-10 -2 -26 -2 -35 0 -10 3 -2 5 17 5 19 0 27 -2 18 -5z m434 -14 c217 -27 384 -73 410 -113 44 -66 -111 -123 -445 -166 -157 -20 -215 -24 -206 -15 3 2 66 11 140 20 265 30 431 76 456 125 9 19 9 26 0 32 -7 4 -7 8 -2 9 13 1 -82 35 -165 59 -54 16 -251 47 -400 63 -33 4 -33 4 7 5 23 1 115 -7 205 -19z m-2 -39 c20 -6 21 -8 5 -8 -11 0 -29 3 -40 8 -25 11 1 11 35 0z m-8650 -20 c-34 -11 -60 -11 -35 0 11 5 29 8 40 8 16 0 15 -2 -5 -8z m8780 -15 c36 -20 13 -17 -50 6 -50 18 -51 19 -15 14 22 -4 51 -13 65 -20z m-8867 -11 c-17 -9 -39 -24 -49 -35 -16 -18 -16 -20 1 -39 9 -10 40 -27 67 -36 27 -9 47 -18 44 -21 -8 -8 -99 29 -123 50 -13 11 -23 26 -23 33 0 15 77 64 100 64 8 0 1 -8 -17 -16z m8938 -23 c20 -16 22 -23 13 -38 -14 -24 -80 -59 -124 -67 -31 -5 -30 -4 10 11 52 18 100 50 100 65 0 6 -10 19 -22 29 -28 25 -7 24 23 0z m-5078 -51 c-4 -15 -9 -17 -24 -10 -31 17 -32 30 -1 30 25 0 29 -3 25 -20z m1545 -125 c3 -167 0 -188 -31 -183 -20 3 -22 10 -27 88 l-5 85 -165 11 c-174 11 -342 29 -425 44 -27 5 -80 14 -117 20 -147 22 -207 32 -303 52 -55 11 -102 22 -104 24 -3 2 261 3 585 2 l589 -3 3 -140z m-1608 119 c0 -14 -3 -15 -17 -3 -10 7 -20 15 -22 16 -2 2 5 3 17 3 14 0 22 -6 22 -16z m-3272 -121 c-10 -2 -26 -2 -35 0 -10 3 -2 5 17 5 19 0 27 -2 18 -5z m7840 0 c-10 -2 -26 -2 -35 0 -10 3 -2 5 17 5 19 0 27 -2 18 -5z m-7895 -20 c-13 -2 -35 -2 -50 0 -16 2 -5 4 22 4 28 0 40 -2 28 -4z m7950 0 c-13 -2 -33 -2 -45 0 -13 2 -3 4 22 4 25 0 35 -2 23 -4z m-7810 -10 c-13 -2 -35 -2 -50 0 -16 2 -5 4 22 4 28 0 40 -2 28 -4z m7715 0 c-16 -2 -40 -2 -55 0 -16 2 -3 4 27 4 30 0 43 -2 28 -4z m-7590 -10 c-16 -2 -40 -2 -55 0 -16 2 -3 4 27 4 30 0 43 -2 28 -4z m477 -3 c-3 -5 -21 -9 -38 -9 l-32 2 35 7 c19 4 36 8 38 9 2 0 0 -3 -3 -9z m6963 3 c-15 -2 -42 -2 -60 0 -18 2 -6 4 27 4 33 0 48 -2 33 -4z m-7260 -10 c-15 -2 -42 -2 -60 0 -18 2 -6 4 27 4 33 0 48 -2 33 -4z m7080 0 c-16 -2 -40 -2 -55 0 -16 2 -3 4 27 4 30 0 43 -2 28 -4z m-6895 -10 c-18 -2 -48 -2 -65 0 -18 2 -4 4 32 4 36 0 50 -2 33 -4z m155 -10 c-15 -2 -42 -2 -60 0 -18 2 -6 4 27 4 33 0 48 -2 33 -4z m2604 -4295 l3 -23 343 -3 c222 -1 341 -6 337 -12 -3 -6 -22 -10 -41 -10 -19 0 -55 -9 -80 -20 -24 -11 -58 -23 -75 -27 l-31 -6 28 -12 c27 -11 22 -13 -56 -18 -47 -4 -152 -9 -235 -12 -167 -7 -195 -11 -195 -31 0 -9 -11 -14 -29 -14 -26 0 -30 4 -33 33 -2 17 -2 65 0 105 4 72 4 72 32 72 22 0 29 -5 32 -22z m1714 -109 c165 -14 163 -16 -8 -18 l-158 -1 0 45 0 45 28 -31 c27 -31 32 -32 138 -40z m-1715 -1571 c1 -84 3 -145 6 -135 4 15 12 17 49 13 62 -8 94 -17 94 -27 0 -5 24 -9 54 -9 30 0 56 -4 58 -9 2 -6 14 -12 28 -14 14 -3 39 -12 55 -21 17 -9 36 -16 43 -16 7 0 20 -4 30 -9 55 -29 201 -84 265 -99 76 -18 178 -20 317 -7 82 8 80 8 130 1 19 -3 44 -5 55 -6 19 0 18 -2 -4 -19 -23 -18 -37 -51 -22 -51 4 0 38 15 77 34 80 39 173 71 181 62 3 -3 0 -38 -7 -78 -16 -89 -20 -159 -10 -153 4 3 10 -9 14 -26 8 -42 83 -112 187 -174 46 -27 92 -53 102 -58 11 -4 31 -15 46 -25 14 -11 67 -40 116 -66 103 -55 219 -130 253 -163 13 -13 29 -23 37 -23 8 0 15 -4 15 -10 0 -5 7 -10 15 -10 8 0 15 -4 15 -8 0 -4 10 -8 22 -9 11 -1 24 -7 28 -13 4 -6 27 -14 51 -16 24 -3 48 -10 53 -15 6 -5 30 -9 55 -9 52 0 45 -11 -16 -29 l-43 -12 -132 74 c-420 235 -660 330 -965 381 l-137 23 -12 52 c-14 64 -39 100 -84 123 -29 15 -65 17 -286 15 l-252 -2 -28 -25 c-32 -30 -63 -95 -64 -132 0 -30 -4 -31 -63 -21 -27 4 -42 13 -49 28 -9 20 -24 25 -117 39 -236 35 -323 41 -623 41 -264 0 -301 2 -260 12 71 19 184 44 212 47 14 2 72 14 130 26 58 12 123 26 145 31 22 4 55 13 73 18 17 5 32 7 32 4 0 -3 7 0 15 7 8 6 19 9 24 6 5 -4 12 -2 16 4 3 5 17 10 31 10 15 0 24 6 24 16 0 10 6 14 15 10 8 -3 15 -1 15 5 0 5 15 9 33 8 17 -2 55 8 82 20 28 13 55 24 60 25 6 1 18 7 28 12 16 9 13 12 -25 23 -79 21 -182 31 -265 24 -57 -4 -83 -3 -83 5 0 14 41 43 52 36 4 -3 17 -2 28 1 19 6 20 15 20 204 0 109 3 201 7 204 3 4 17 7 30 7 l23 0 1 -152z m14 -688 c61 -6 170 -20 243 -32 115 -18 132 -23 132 -39 0 -16 -8 -19 -48 -19 -81 0 -497 -36 -535 -47 -15 -4 -17 1 -11 34 3 21 5 46 5 55 0 10 5 20 10 23 5 4 7 11 4 16 -12 18 5 27 47 23 24 -2 93 -9 153 -14z m1120 -132 c-4 -18 -9 -42 -10 -53 -2 -11 -4 -22 -5 -25 -1 -3 -2 -8 -1 -12 2 -14 -44 -93 -56 -95 -7 -2 -11 3 -8 10 2 6 13 56 25 110 19 83 25 97 42 97 18 0 20 -4 13 -32z m-730 -138 c6 -56 4 -71 -5 -65 -34 21 -52 127 -28 165 13 20 13 19 19 -4 4 -13 10 -57 14 -96z m2536 -86 c20 -24 -5 -34 -86 -33 l-70 0 55 24 c66 28 84 30 101 9z m-5073 -181 c20 -16 39 -31 42 -34 3 -3 30 -22 60 -41 30 -20 71 -50 90 -67 19 -17 40 -31 45 -31 12 0 164 -125 208 -171 l28 -29 -28 -11 c-46 -18 -177 -23 -244 -10 -175 35 -283 142 -282 281 0 48 26 140 40 140 2 0 21 -12 41 -27z"/>
 <path d="M3765 2420 c17 -4 41 -8 55 -8 22 0 22 1 -5 8 -16 4 -41 8 -55 8 -22 0 -22 -1 5 -8z"/>
 <path d="M3863 2403 c9 -2 25 -2 35 0 9 3 1 5 -18 5 -19 0 -27 -2 -17 -5z"/>
 <path d="M3993 2383 c9 -2 25 -2 35 0 9 3 1 5 -18 5 -19 0 -27 -2 -17 -5z"/>
 <path d="M8991 1405 c-39 -52 -69 -95 -67 -95 4 0 124 152 139 178 5 6 6 12 4 12 -3 0 -37 -43 -76 -95z"/>
 <path d="M3923 953 c30 -55 90 -153 94 -153 5 0 7 -4 -47 88 -23 39 -44 72 -47 72 -2 0 -2 -3 0 -7z"/>
 <path d="M8560 855 c-24 -25 -42 -45 -39 -45 3 0 25 20 49 45 24 25 42 45 39 45 -3 0 -25 -20 -49 -45z"/>
 </g>
<g id="layer104" fill="#6e6e6e" stroke="none">
 <path d="M5125 9593 c-310 -3 -1005 -22 -1200 -33 -93 -5 -300 -14 -460 -20 -1144 -42 -1760 -97 -1968 -176 -74 -28 -101 -60 -81 -92 28 -44 213 -104 359 -117 44 -4 96 -11 115 -15 64 -16 669 -60 1083 -79 110 -5 201 -11 202 -13 2 -2 -2 -22 -10 -43 -12 -34 -14 -366 -15 -2196 l0 -2156 -50 -5 c-60 -6 -108 -37 -144 -92 -25 -39 -26 -45 -26 -199 0 -150 1 -159 18 -146 9 8 56 45 103 84 312 255 375 305 390 305 13 0 17 -31 24 -165 24 -487 140 -896 339 -1194 67 -100 220 -259 309 -320 181 -124 488 -212 739 -212 101 0 143 6 320 45 199 44 333 67 470 81 l68 7 0 3203 0 3204 -21 15 c-20 14 -18 15 32 21 30 3 401 5 824 3 l770 -3 5 -2277 5 -2278 27 -26 c24 -24 36 -28 135 -36 164 -13 162 -15 -9 -17 l-158 -1 0 -890 0 -891 48 6 c26 4 175 0 332 -9 716 -38 1047 -28 1401 44 120 25 314 87 403 129 189 91 384 265 522 465 l54 80 0 465 c0 465 0 466 -23 503 -29 48 -82 87 -129 95 l-38 6 0 2153 c0 2129 0 2154 -20 2206 -11 29 -20 54 -20 54 0 1 55 5 123 8 67 4 178 11 247 17 69 5 193 14 275 20 362 24 636 70 745 122 48 24 78 66 57 79 -7 4 -7 8 -2 8 11 1 -87 43 -153 66 -78 27 -367 67 -617 84 -77 5 -157 12 -178 15 -20 3 -122 10 -225 15 -103 5 -317 16 -477 24 -1223 64 -2734 87 -4520 69z m1423 -20 c-158 -2 -419 -2 -580 0 -161 1 -32 2 287 2 319 0 451 -1 293 -2z m-1323 -10 c-98 -2 -162 -8 -166 -14 -4 -7 -23 -8 -55 -2 l-49 8 55 6 c30 3 127 5 215 5 l160 0 -160 -3z m2461 0 c-29 -3 -36 -7 -25 -14 9 -6 -2 -7 -31 -3 -25 3 -97 9 -160 13 -112 8 -110 8 70 8 102 0 167 -2 146 -4z m-3219 -10 c-20 -2 -52 -2 -70 0 -17 2 0 4 38 4 39 0 53 -2 32 -4z m3741 -3 c-53 -4 -101 -11 -107 -15 -6 -3 -26 -3 -44 2 -29 7 -26 8 33 14 36 3 99 6 140 6 73 0 72 0 -22 -7z m-4025 -7 c-24 -2 -62 -2 -85 0 -24 2 -5 4 42 4 47 0 66 -2 43 -4z m481 -3 c-7 -7 -29 -7 -65 -1 l-54 9 65 1 c43 1 61 -2 54 -9z m3984 3 c-21 -2 -57 -2 -80 0 -24 2 -7 4 37 4 44 0 63 -2 43 -4z m-4710 -20 c16 -15 15 -16 -13 -8 -17 5 -55 12 -85 15 l-55 7 68 2 c52 1 72 -3 85 -16z m377 12 c-25 -9 -107 -12 -94 -4 8 5 34 8 59 8 25 0 41 -2 35 -4z m4157 -7 c-8 -8 -20 -8 -44 -1 l-33 11 45 1 c33 1 41 -2 32 -11z m455 5 c-20 -2 -52 -2 -70 0 -17 2 0 4 38 4 39 0 53 -2 32 -4z m-5359 -10 c-16 -2 -40 -2 -55 0 -16 2 -3 4 27 4 30 0 43 -2 28 -4z m5228 -2 c-5 -8 -56 -3 -56 5 0 2 14 4 31 4 16 0 28 -4 25 -9z m391 2 c-20 -2 -52 -2 -70 0 -17 2 0 4 38 4 39 0 53 -2 32 -4z m-5834 -10 c-18 -2 -48 -2 -65 0 -18 2 -4 4 32 4 36 0 50 -2 33 -4z m347 -3 c10 -6 2 -7 -25 -3 -49 7 -58 13 -19 13 16 0 36 -5 44 -10z m5718 3 c-16 -2 -40 -2 -55 0 -16 2 -3 4 27 4 30 0 43 -2 28 -4z m-6280 -10 c-16 -2 -40 -2 -55 0 -16 2 -3 4 27 4 30 0 43 -2 28 -4z m6127 0 c-11 -3 -25 -9 -32 -15 -7 -5 -13 -5 -17 1 -7 12 11 20 44 19 20 0 21 -1 5 -5z m343 0 c-15 -2 -42 -2 -60 0 -18 2 -6 4 27 4 33 0 48 -2 33 -4z m-6640 -10 c-16 -2 -40 -2 -55 0 -16 2 -3 4 27 4 30 0 43 -2 28 -4z m310 -13 c4 -12 2 -13 -9 -4 -8 7 -23 14 -34 17 -13 4 -9 5 9 4 16 -1 32 -9 34 -17z m6210 13 c-10 -2 -26 -2 -35 0 -10 3 -2 5 17 5 19 0 27 -2 18 -5z m325 0 c-18 -2 -48 -2 -65 0 -18 2 -4 4 32 4 36 0 50 -2 33 -4z m-7020 -10 c-18 -2 -48 -2 -65 0 -18 2 -4 4 32 4 36 0 50 -2 33 -4z m275 0 c-10 -2 -26 -2 -35 0 -10 3 -2 5 17 5 19 0 27 -2 18 -5z m6880 0 c-16 -2 -40 -2 -55 0 -16 2 -3 4 27 4 30 0 43 -2 28 -4z m-7315 -10 c-18 -2 -48 -2 -65 0 -18 2 -4 4 32 4 36 0 50 -2 33 -4z m275 0 c-10 -2 -26 -2 -35 0 -10 3 -2 5 17 5 19 0 27 -2 18 -5z m7190 0 c-16 -2 -40 -2 -55 0 -16 2 -3 4 27 4 30 0 43 -2 28 -4z m-7600 -10 c-16 -2 -40 -2 -55 0 -16 2 -3 4 27 4 30 0 43 -2 28 -4z m7837 -3 l60 -7 -55 -1 c-30 0 -77 3 -105 8 l-50 7 45 1 c25 0 72 -4 105 -8z m-8015 -12 c-437 -46 -641 -99 -628 -164 9 -47 239 -111 483 -134 117 -11 159 -20 98 -20 -47 0 -291 29 -348 41 -123 26 -182 41 -212 55 -17 8 -34 14 -37 14 -14 0 -46 36 -46 51 0 57 179 111 475 143 77 9 154 17 170 19 17 2 53 4 80 4 33 0 22 -3 -35 -9z m7898 -5 c-10 -2 -26 -2 -35 0 -10 3 -2 5 17 5 19 0 27 -2 18 -5z m434 -14 c217 -27 384 -73 410 -113 44 -66 -111 -123 -445 -166 -157 -20 -215 -24 -206 -15 3 2 66 11 140 20 265 30 431 76 456 125 9 19 9 26 0 32 -7 4 -7 8 -2 9 13 1 -82 35 -165 59 -54 16 -251 47 -400 63 -33 4 -33 4 7 5 23 1 115 -7 205 -19z m-2 -39 c20 -6 21 -8 5 -8 -11 0 -29 3 -40 8 -25 11 1 11 35 0z m-8650 -20 c-34 -11 -60 -11 -35 0 11 5 29 8 40 8 16 0 15 -2 -5 -8z m8780 -15 c36 -20 13 -17 -50 6 -50 18 -51 19 -15 14 22 -4 51 -13 65 -20z m-8867 -11 c-17 -9 -39 -24 -49 -35 -16 -18 -16 -20 1 -39 9 -10 40 -27 67 -36 27 -9 47 -18 44 -21 -8 -8 -99 29 -123 50 -13 11 -23 26 -23 33 0 15 77 64 100 64 8 0 1 -8 -17 -16z m8938 -23 c20 -16 22 -23 13 -38 -14 -24 -80 -59 -124 -67 -31 -5 -30 -4 10 11 52 18 100 50 100 65 0 6 -10 19 -22 29 -28 25 -7 24 23 0z m-8413 -178 c-10 -2 -26 -2 -35 0 -10 3 -2 5 17 5 19 0 27 -2 18 -5z m7840 0 c-10 -2 -26 -2 -35 0 -10 3 -2 5 17 5 19 0 27 -2 18 -5z m-7895 -20 c-13 -2 -35 -2 -50 0 -16 2 -5 4 22 4 28 0 40 -2 28 -4z m7950 0 c-13 -2 -33 -2 -45 0 -13 2 -3 4 22 4 25 0 35 -2 23 -4z m-7810 -10 c-13 -2 -35 -2 -50 0 -16 2 -5 4 22 4 28 0 40 -2 28 -4z m7715 0 c-16 -2 -40 -2 -55 0 -16 2 -3 4 27 4 30 0 43 -2 28 -4z m-7590 -10 c-16 -2 -40 -2 -55 0 -16 2 -3 4 27 4 30 0 43 -2 28 -4z m477 -3 c-3 -5 -21 -9 -38 -9 l-32 2 35 7 c19 4 36 8 38 9 2 0 0 -3 -3 -9z m6963 3 c-15 -2 -42 -2 -60 0 -18 2 -6 4 27 4 33 0 48 -2 33 -4z m-7260 -10 c-15 -2 -42 -2 -60 0 -18 2 -6 4 27 4 33 0 48 -2 33 -4z m7080 0 c-16 -2 -40 -2 -55 0 -16 2 -3 4 27 4 30 0 43 -2 28 -4z m-6895 -10 c-18 -2 -48 -2 -65 0 -18 2 -4 4 32 4 36 0 50 -2 33 -4z m155 -10 c-15 -2 -42 -2 -60 0 -18 2 -6 4 27 4 33 0 48 -2 33 -4z"/>
 <path d="M10000 3047 c-74 -99 -307 -344 -405 -426 l-50 -41 196 0 c186 0 198 1 240 23 28 15 54 40 72 68 l27 45 -2 216 -3 217 -75 -102z"/>
 <path d="M2930 2827 c0 -107 1 -115 29 -159 44 -69 92 -88 221 -88 101 0 104 1 80 17 -108 72 -240 208 -299 306 -12 20 -25 37 -27 37 -2 0 -4 -51 -4 -113z"/>
 </g>
<g id="layer105" fill="#998081" stroke="none">
 <path d="M4910 9589 c-463 -8 -1041 -27 -1048 -34 -6 -6 640 4 963 15 512 17 3394 9 3275 -10 -19 -3 120 -6 310 -7 318 -1 892 -20 1290 -43 156 -9 323 -12 290 -4 -20 4 -556 30 -1025 49 -982 40 -2812 56 -4055 34z"/>
 <path d="M6353 9563 c26 -2 67 -2 90 0 23 2 2 3 -48 3 -49 0 -68 -1 -42 -3z"/>
 <path d="M3455 9540 l-110 -6 110 -2 c61 -1 126 -4 145 -6 24 -2 27 -1 10 3 -14 3 36 8 110 11 l135 6 -145 0 c-80 0 -194 -3 -255 -6z"/>
 <path d="M2915 9519 c-656 -36 -995 -66 -1240 -110 -196 -35 -291 -85 -259 -137 28 -44 213 -104 359 -117 44 -4 96 -11 115 -15 75 -19 975 -81 1130 -79 54 1 7 6 -130 15 -681 41 -979 69 -1146 109 -114 28 -155 44 -191 78 -33 30 -29 44 22 76 127 81 538 128 1580 180 l160 8 -125 0 c-69 0 -192 -4 -275 -8z"/>
 <path d="M10010 9497 c0 -2 82 -9 183 -16 569 -37 801 -70 922 -134 68 -35 73 -62 17 -101 -95 -66 -413 -112 -1042 -152 l-244 -16 -20 29 c-38 53 -101 106 -166 137 l-65 31 -1125 3 -1126 2 -12 -42 c-10 -34 -12 -489 -9 -2193 3 -1874 5 -2158 18 -2211 16 -66 33 -90 70 -98 13 -3 107 -10 209 -16 178 -10 478 -43 550 -60 20 -5 -148 -8 -401 -9 l-436 -1 -7 -38 c-11 -71 -7 -1717 5 -1729 6 -6 26 -9 43 -6 17 3 164 -2 326 -11 726 -38 1046 -28 1401 44 120 25 314 87 403 129 189 91 384 265 522 465 l54 80 0 465 c0 465 0 466 -23 503 -29 48 -82 87 -129 95 l-38 6 0 2153 c0 2129 0 2154 -20 2206 -11 29 -20 54 -20 54 0 1 55 5 123 8 67 4 178 11 247 17 69 5 193 14 275 20 362 24 636 70 745 122 48 24 78 66 57 79 -7 4 -7 8 -2 8 11 1 -87 43 -153 66 -77 27 -362 66 -617 84 -77 6 -184 15 -239 20 -94 10 -276 14 -276 7z"/>
 <path d="M1716 9329 c-33 -26 -33 -52 -1 -73 14 -9 25 -12 25 -7 0 5 -7 11 -15 15 -23 9 -18 42 11 65 15 12 22 21 17 21 -6 0 -22 -9 -37 -21z"/>
 <path d="M10978 9320 c12 -13 22 -27 22 -32 0 -4 -17 -19 -37 -33 -44 -29 -33 -34 13 -6 30 18 53 61 32 61 -5 0 -6 5 -3 10 3 6 2 10 -4 10 -5 0 -17 3 -27 7 -15 6 -14 3 4 -17z"/>
 <path d="M3429 9265 c-97 -35 -172 -91 -215 -160 -26 -40 -33 -45 -69 -47 l-40 -1 38 -4 c20 -2 37 -5 37 -6 0 -1 -7 -20 -15 -42 -12 -34 -14 -345 -15 -2196 l0 -2156 -50 -5 c-60 -6 -108 -37 -144 -92 -25 -39 -26 -45 -26 -199 0 -150 1 -159 18 -146 9 8 56 45 103 84 312 255 375 305 390 305 13 0 17 -31 24 -165 24 -487 140 -896 339 -1194 67 -100 220 -259 309 -320 181 -124 488 -212 739 -212 101 0 143 6 320 45 199 44 333 67 471 81 l67 7 0 904 0 904 -292 1 c-296 2 -302 9 -17 23 254 12 275 18 299 80 7 19 10 729 10 2222 l0 2196 -29 29 -29 29 -139 1 c-76 1 -149 2 -163 4 -14 1 -77 5 -140 9 -131 7 -211 14 -325 27 -44 5 -381 9 -750 8 -530 0 -678 -3 -706 -14z"/>
 <path d="M10000 3047 c-74 -99 -307 -344 -405 -426 l-50 -41 196 0 c186 0 198 1 240 23 28 15 54 40 72 68 l27 45 -2 216 -3 217 -75 -102z"/>
 <path d="M2930 2827 c0 -107 1 -115 29 -159 44 -69 92 -88 221 -88 101 0 104 1 80 17 -108 72 -240 208 -299 306 -12 20 -25 37 -27 37 -2 0 -4 -51 -4 -113z"/>
 </g>
<g id="layer106" fill="#bcbcbb" stroke="none">
 <path d="M5408 9593 c45 -2 119 -2 165 0 45 1 8 3 -83 3 -91 0 -128 -2 -82 -3z"/>
 <path d="M7208 9593 c39 -2 105 -2 145 0 39 1 7 3 -73 3 -80 0 -112 -2 -72 -3z"/>
 <path d="M4743 9583 c54 -2 139 -2 190 0 51 1 7 3 -98 3 -104 0 -146 -2 -92 -3z"/>
 <path d="M7622 9583 c48 -2 129 -2 180 0 51 1 12 3 -87 3 -99 0 -141 -2 -93 -3z"/>
 <path d="M4393 9573 c31 -2 83 -2 115 0 31 2 5 3 -58 3 -63 0 -89 -1 -57 -3z"/>
 <path d="M8143 9573 c43 -2 110 -2 150 0 40 1 5 3 -78 3 -82 0 -115 -2 -72 -3z"/>
 <path d="M4053 9563 c31 -2 83 -2 115 0 31 2 5 3 -58 3 -63 0 -89 -1 -57 -3z"/>
 <path d="M8573 9563 c32 -2 81 -2 110 0 29 2 3 3 -58 3 -60 0 -84 -1 -52 -3z"/>
 <path d="M8883 9553 c15 -2 39 -2 55 0 15 2 2 4 -28 4 -30 0 -43 -2 -27 -4z"/>
 <path d="M3422 9261 c-117 -40 -214 -134 -253 -246 -19 -53 -19 -105 -19 -2208 l0 -2154 -50 -5 c-60 -6 -108 -37 -144 -92 -25 -39 -26 -45 -26 -199 l0 -159 24 19 c13 10 115 93 227 184 239 194 258 207 268 190 5 -7 11 -72 15 -144 21 -410 94 -728 231 -1012 104 -214 251 -391 419 -504 68 -46 150 -90 181 -97 6 -2 35 -12 65 -22 30 -11 75 -21 100 -23 25 -1 50 -6 55 -9 29 -21 340 -37 329 -18 -5 7 -2 8 6 3 7 -4 36 -9 64 -11 28 -2 80 -6 116 -8 44 -3 91 2 150 15 115 27 271 56 350 64 36 4 79 9 95 10 17 2 35 4 40 4 6 1 17 20 25 44 11 34 14 196 17 852 3 446 1 834 -2 863 l-6 52 -611 0 c-336 0 -609 2 -607 4 5 5 149 22 254 31 39 3 84 8 100 10 33 5 443 30 655 41 74 3 143 10 152 15 31 17 49 69 59 168 6 58 9 888 7 2131 l-3 2035 -21 47 c-12 25 -30 48 -40 51 -11 3 -107 8 -214 12 -173 5 -346 14 -550 30 -118 9 -183 17 -318 36 -117 17 -192 19 -610 19 -435 -1 -482 -2 -530 -19z"/>
 <path d="M7383 9268 c-34 -43 -44 -86 -54 -228 -15 -206 -6 -3536 10 -3800 14 -250 28 -373 45 -415 17 -39 26 -41 216 -50 69 -4 132 -8 140 -10 8 -2 53 -7 100 -10 98 -7 411 -44 420 -50 3 -2 30 -6 60 -10 30 -4 89 -15 130 -25 l75 -19 -581 0 -582 -1 -6 -23 c-24 -99 -30 -261 -31 -862 0 -646 10 -871 39 -880 6 -2 83 -7 171 -10 88 -3 189 -8 225 -10 262 -17 638 -26 644 -16 5 8 55 21 101 27 6 0 17 3 25 7 8 3 22 6 30 6 8 0 44 5 80 11 62 10 99 16 165 25 66 8 99 15 158 31 103 27 129 32 202 40 78 8 147 8 185 1 36 -6 136 35 278 114 116 66 290 240 409 409 l38 55 3 468 c3 467 3 468 -19 507 -27 48 -83 89 -133 97 l-36 6 0 2153 0 2153 -21 58 c-38 102 -112 181 -219 232 l-55 26 -1101 3 c-880 2 -1103 0 -1111 -10z"/>
 <path d="M10055 3117 c-102 -145 -273 -332 -428 -468 l-77 -69 193 0 c184 0 196 1 238 23 28 15 54 40 72 68 l27 45 -2 215 -3 214 -20 -28z"/>
 <path d="M2930 2824 c0 -104 1 -112 29 -156 44 -69 92 -88 222 -87 65 0 96 3 84 9 -11 4 -55 38 -98 75 -65 56 -127 126 -221 250 -14 18 -15 10 -16 -91z"/>
 </g>
<g id="layer107" fill="#f2f2f2" stroke="none">
 <path d="M5408 9593 c45 -2 119 -2 165 0 45 1 8 3 -83 3 -91 0 -128 -2 -82 -3z"/>
 <path d="M7208 9593 c39 -2 105 -2 145 0 39 1 7 3 -73 3 -80 0 -112 -2 -72 -3z"/>
 <path d="M4743 9583 c54 -2 139 -2 190 0 51 1 7 3 -98 3 -104 0 -146 -2 -92 -3z"/>
 <path d="M7622 9583 c48 -2 129 -2 180 0 51 1 12 3 -87 3 -99 0 -141 -2 -93 -3z"/>
 <path d="M4393 9573 c31 -2 83 -2 115 0 31 2 5 3 -58 3 -63 0 -89 -1 -57 -3z"/>
 <path d="M8143 9573 c43 -2 110 -2 150 0 40 1 5 3 -78 3 -82 0 -115 -2 -72 -3z"/>
 <path d="M4053 9563 c31 -2 83 -2 115 0 31 2 5 3 -58 3 -63 0 -89 -1 -57 -3z"/>
 <path d="M8573 9563 c32 -2 81 -2 110 0 29 2 3 3 -58 3 -60 0 -84 -1 -52 -3z"/>
 <path d="M8883 9553 c15 -2 39 -2 55 0 15 2 2 4 -28 4 -30 0 -43 -2 -27 -4z"/>
 <path d="M3316 9198 c-42 -21 -99 -87 -134 -153 l-27 -50 -3 -2059 c-2 -2029 -2 -2058 17 -2053 12 3 27 -3 38 -17 21 -24 47 -25 278 -11 61 4 137 8 170 10 240 14 376 25 395 32 8 3 49 7 91 10 70 4 114 9 114 13 0 1 16 3 35 5 19 3 53 7 75 11 22 4 51 8 65 10 14 2 39 6 55 9 17 3 53 7 80 9 28 2 50 5 50 6 0 1 11 3 25 6 54 9 126 27 144 36 12 7 16 7 12 0 -4 -7 3 -7 21 -1 16 5 45 11 66 14 20 3 37 10 37 15 0 6 9 10 20 10 11 0 20 -5 20 -11 0 -7 8 -6 23 3 12 8 35 13 51 12 15 -2 44 6 64 17 20 10 53 19 74 19 20 0 63 7 95 17 32 9 74 17 93 19 19 1 36 3 38 5 1 1 10 2 20 3 9 1 24 6 32 11 15 9 34 15 58 17 6 1 12 5 12 10 0 5 4 7 9 3 5 -3 13 -1 16 5 5 8 11 8 20 0 9 -7 15 -7 19 -1 4 5 15 8 26 6 11 -2 19 -1 18 3 -2 4 3 27 9 52 32 121 53 834 51 1670 -2 957 -21 1587 -52 1707 -11 42 -16 48 -42 50 -16 1 -56 5 -89 8 -33 4 -87 9 -120 11 -32 3 -67 10 -76 15 -10 5 -27 9 -37 9 -11 0 -47 14 -81 30 -33 17 -75 33 -93 37 -18 3 -59 19 -90 35 -32 15 -61 28 -64 27 -4 0 -10 3 -13 8 -10 14 -68 43 -86 43 -9 0 -13 5 -10 10 3 6 -4 10 -18 10 -14 0 -30 7 -37 15 -7 8 -23 15 -35 15 -12 0 -28 7 -35 15 -7 8 -21 15 -32 15 -10 0 -16 5 -13 10 3 6 0 10 -8 10 -8 0 -20 7 -27 15 -7 8 -22 15 -34 15 -12 0 -31 8 -42 18 -19 17 -36 22 -81 25 -13 1 -23 5 -23 8 0 7 -75 31 -110 36 -45 5 -145 26 -155 31 -5 3 -21 7 -35 8 -35 4 -79 10 -195 28 -174 27 -309 37 -493 40 -89 1 -120 -3 -146 -16z"/>
 <path d="M8794 9191 c-2 -2 -123 -6 -269 -7 -146 -2 -269 -6 -275 -9 -5 -3 -10 -1 -10 5 0 6 -5 8 -12 4 -6 -4 -45 -9 -87 -10 -42 -2 -132 -6 -201 -8 -69 -3 -156 -8 -195 -11 -38 -4 -101 -8 -140 -11 -38 -2 -82 -5 -97 -7 -16 -2 -39 -4 -52 -5 -14 -1 -31 -8 -39 -16 -40 -40 -50 -386 -51 -1819 -1 -893 6 -1437 19 -1519 2 -13 6 -71 10 -130 4 -59 12 -129 19 -155 11 -41 16 -48 37 -48 13 1 27 -3 30 -7 6 -9 47 -16 117 -20 30 -1 46 -7 53 -20 5 -10 13 -17 17 -17 4 1 9 0 12 -1 8 -3 44 -10 70 -13 14 -2 35 -9 47 -15 12 -7 27 -12 33 -12 7 0 24 -8 38 -18 15 -10 43 -25 62 -32 19 -7 49 -23 65 -35 25 -19 99 -57 115 -61 32 -7 69 -28 63 -37 -4 -6 0 -8 10 -4 10 3 17 2 17 -3 0 -6 9 -10 20 -10 11 0 20 -4 20 -9 0 -5 8 -11 18 -14 28 -9 76 -41 91 -60 8 -11 21 -17 32 -14 11 3 23 -1 27 -9 5 -8 18 -16 30 -17 12 0 19 -3 17 -6 -8 -7 17 -31 32 -31 8 0 55 -20 106 -44 101 -48 173 -77 185 -74 4 1 23 -5 42 -13 19 -9 78 -26 130 -38 52 -12 127 -30 165 -40 105 -28 235 -54 251 -51 4 1 10 -3 13 -8 3 -6 28 -13 54 -16 27 -3 53 -8 57 -11 5 -3 28 -8 51 -10 23 -2 51 -8 63 -11 28 -10 146 -12 140 -3 -2 4 6 9 18 12 12 4 19 9 16 12 -4 4 0 22 8 40 13 32 16 71 29 330 3 61 8 139 10 175 3 36 7 108 10 160 12 221 15 270 21 355 4 50 8 106 10 125 1 19 3 64 4 100 2 49 4 59 10 40 4 -14 7 650 7 1475 l-2 1500 -27 55 c-39 81 -67 111 -108 115 -19 2 -64 11 -99 20 -54 14 -130 17 -459 18 -216 1 -396 0 -398 -2z"/>
 <path d="M8445 4634 c-95 -13 -310 -41 -385 -50 -75 -9 -350 -61 -420 -79 -3 -1 -22 -5 -43 -9 -20 -5 -40 -13 -43 -18 -4 -6 -10 -5 -15 3 -6 10 -9 11 -9 2 0 -7 -9 -13 -20 -13 -27 0 -88 -32 -96 -50 -16 -35 -34 -211 -45 -430 -16 -340 6 -825 42 -891 9 -17 21 -18 127 -14 225 9 383 17 411 20 16 2 57 6 92 10 61 5 91 11 201 35 25 5 63 12 85 15 21 3 45 8 53 11 14 5 79 19 140 30 14 2 57 11 95 19 82 17 231 43 295 50 25 3 65 10 90 16 25 5 95 14 155 19 61 6 124 12 140 15 37 5 385 6 440 1 23 -1 51 -8 62 -15 37 -19 53 -13 101 41 89 98 100 117 111 203 23 179 34 374 35 630 1 295 1 299 -61 357 -45 43 -92 57 -234 68 -74 6 -178 17 -231 25 -133 20 -925 19 -1073 -1z"/>
 <path d="M3235 4581 c-113 -5 -135 -9 -168 -29 -70 -44 -92 -140 -46 -207 13 -19 28 -35 32 -35 7 0 226 171 301 236 15 13 32 24 37 24 5 0 9 5 9 10 0 6 -8 9 -17 8 -10 -1 -76 -4 -148 -7z"/>
 <path d="M3465 4474 c4 -115 8 -167 20 -264 12 -101 14 -112 24 -123 5 -7 10 -16 11 -22 1 -5 15 -36 31 -69 16 -32 29 -66 29 -76 0 -11 5 -22 11 -25 6 -4 8 -13 5 -21 -3 -8 -1 -14 4 -14 4 0 12 -15 15 -32 4 -18 18 -54 31 -80 13 -26 24 -54 24 -61 0 -8 9 -22 20 -32 11 -10 20 -25 20 -32 0 -17 113 -159 148 -187 14 -11 35 -30 47 -42 33 -33 218 -156 290 -192 125 -64 255 -112 345 -126 144 -24 383 -29 590 -12 19 2 76 6 125 10 50 4 103 10 118 12 16 3 68 7 115 9 48 3 87 5 87 6 0 0 10 2 23 3 32 4 40 15 51 71 29 153 48 894 28 1085 -15 150 -31 230 -46 244 -28 25 -75 29 -526 41 -197 5 -236 7 -420 25 -60 6 -361 13 -667 17 l-556 6 3 -119z"/>
 </g>

</svg>