<!DOCTYPE svg PUBLIC "-//W3C//DTD SVG 20010904//EN" "http://www.w3.org/TR/2001/REC-SVG-20010904/DTD/svg10.dtd">
<svg version="1.0" xmlns="http://www.w3.org/2000/svg" width="313px" height="387px" viewBox="0 0 3130 3870" preserveAspectRatio="xMidYMid meet">
<g id="layer101" fill="#cdcdcd" stroke="none">
 <path d="M1200 3858 c-222 -6 -275 -10 -495 -37 -141 -17 -293 -48 -310 -63 -5 -4 -22 -8 -37 -8 -16 0 -36 -4 -46 -9 -9 -5 -48 -23 -87 -41 -67 -30 -147 -78 -153 -92 -2 -3 -14 -19 -28 -35 -39 -45 -46 -91 -42 -292 3 -167 6 -191 26 -233 12 -26 22 -51 22 -55 0 -5 15 -25 33 -45 17 -20 46 -51 62 -70 17 -19 55 -54 85 -78 30 -25 57 -47 60 -51 8 -10 92 -58 123 -70 15 -6 27 -15 27 -20 0 -5 9 -9 20 -9 11 0 20 -4 20 -10 0 -5 9 -10 20 -10 11 0 20 -4 20 -8 0 -4 17 -14 37 -21 75 -26 168 -62 185 -72 10 -5 27 -9 37 -9 11 0 22 -4 25 -9 3 -5 20 -11 38 -14 64 -10 194 -44 218 -57 57 -30 109 -117 110 -183 0 -30 -13 -58 -64 -135 -60 -92 -81 -136 -131 -279 -17 -49 -30 -69 -62 -92 -96 -69 -153 -221 -153 -405 0 -76 3 -98 19 -117 19 -24 19 -26 -1 -99 -29 -104 -31 -378 -4 -495 20 -92 37 -146 48 -160 4 -5 8 -17 8 -27 0 -10 5 -18 10 -18 6 0 10 -8 11 -17 0 -10 9 -31 19 -48 11 -16 27 -45 36 -63 33 -65 159 -187 233 -226 38 -20 76 -36 85 -36 9 0 16 -4 16 -9 0 -14 66 -23 214 -28 90 -3 143 0 149 6 6 6 21 11 34 11 13 0 31 4 41 9 9 5 39 20 67 32 27 13 68 42 90 65 l41 42 100 4 c80 2 108 8 144 26 43 23 130 98 130 114 0 4 11 24 25 44 14 20 25 45 25 55 0 11 4 19 9 19 5 0 11 10 14 23 40 161 47 209 53 327 6 140 -7 345 -26 380 -8 15 -6 28 7 52 27 49 26 260 -2 346 -11 34 -23 62 -27 62 -5 0 -8 7 -8 15 0 8 -4 15 -10 15 -5 0 -10 5 -10 10 0 6 -29 45 -65 87 -36 42 -65 84 -65 93 0 39 -73 193 -141 297 -25 39 -53 94 -62 121 -16 48 -16 53 2 94 21 48 41 67 88 87 31 13 170 48 231 58 18 3 35 9 38 14 3 5 15 9 28 9 12 0 26 4 32 8 5 4 34 16 64 26 30 10 69 24 85 31 63 27 110 49 115 55 3 3 32 19 65 35 57 29 106 59 131 80 6 6 33 28 59 50 69 58 76 65 120 120 22 28 43 52 47 53 5 2 8 9 8 16 0 7 10 32 22 57 20 39 23 63 26 213 5 201 -2 231 -59 278 -23 18 -47 39 -54 46 -8 6 -21 12 -29 12 -9 0 -16 5 -16 10 0 6 -9 10 -20 10 -11 0 -20 5 -20 10 0 6 -8 10 -18 10 -10 0 -22 4 -27 9 -6 5 -48 21 -95 35 -47 15 -93 31 -102 37 -10 5 -29 9 -42 9 -14 0 -28 5 -31 10 -3 6 -19 10 -35 10 -16 0 -39 4 -52 9 -30 12 -153 37 -253 51 -44 6 -102 16 -128 21 -26 5 -68 9 -93 9 -25 0 -53 4 -62 9 -24 12 -509 18 -792 9z"/>
 </g>

</svg>