<!DOCTYPE svg PUBLIC "-//W3C//DTD SVG 20010904//EN" "http://www.w3.org/TR/2001/REC-SVG-20010904/DTD/svg10.dtd">
<svg version="1.0" xmlns="http://www.w3.org/2000/svg" width="123px" height="153px" viewBox="0 0 1230 1530" preserveAspectRatio="xMidYMid meet">
<g id="layer101" fill="#666666" stroke="none">
 <path d="M10 1028 c0 -276 -3 -621 -7 -765 l-6 -263 384 0 c416 0 475 6 575 55 115 56 165 139 172 281 7 145 -41 252 -142 320 -35 24 -45 34 -31 34 36 0 124 48 174 95 70 66 94 126 99 251 9 207 -71 343 -253 429 -116 55 -137 57 -567 62 l-398 5 0 -504z m671 192 c91 -26 142 -88 141 -176 -1 -71 -28 -115 -90 -146 -41 -20 -65 -23 -189 -26 l-143 -4 0 181 0 181 123 0 c67 0 138 -5 158 -10z m-33 -651 c74 -36 101 -122 62 -199 -30 -59 -66 -73 -197 -78 l-113 -4 0 151 0 151 102 0 c84 0 110 -4 146 -21z"/>
 </g>

</svg>